<svg xmlns="http://www.w3.org/2000/svg" version="1.1" xmlns:xlink="http://www.w3.org/1999/xlink" xmlns:svgjs="http://svgjs.dev/svgjs" width="1500" height="1500" viewBox="0 0 1500 1500"><rect width="1500" height="1500" fill="#35185a"></rect><g transform="matrix(0.6666666666666666,0,0,0.6666666666666666,249.39393939393938,438.5856950067477)"><svg viewBox="0 0 396 247" data-background-color="#35185a" preserveAspectRatio="xMidYMid meet" height="935" width="1500" xmlns="http://www.w3.org/2000/svg" xmlns:xlink="http://www.w3.org/1999/xlink"><g id="tight-bounds" transform="matrix(1,0,0,1,0.2400000000000091,-0.09999999999999432)"><svg viewBox="0 0 395.52 247.2" height="247.2" width="395.52"><g><svg></svg></g><g><svg viewBox="0 0 395.52 247.2" height="247.2" width="395.52"><g transform="matrix(1,0,0,1,145.16360914285713,47.215199999999996)"><svg viewBox="0 0 105.19278171428572 152.7696" height="152.7696" width="105.19278171428572"><g><svg viewBox="0 0 105.19278171428572 152.7696" height="152.7696" width="105.19278171428572"><g><svg viewBox="0 0 105.19278171428572 152.7696" height="152.7696" width="105.19278171428572"><g><svg viewBox="0 0 105.19278171428572 152.7696" height="152.7696" width="105.19278171428572"><g id="textblocktransform"><svg viewBox="0 0 105.19278171428572 152.7696" height="152.7696" width="105.19278171428572" id="textblock"><g><svg viewBox="0 0 105.19278171428572 152.7696" height="152.7696" width="105.19278171428572"><g transform="matrix(1,0,0,1,0,0)"><svg width="105.19278171428572" viewBox="4.55 -35 24.099999999999998 35" height="152.7696" data-palette-color="#ffffff"><path d="M28.65-35L28.65 0 24.9 0 24.9-16.55 8.3-16.55 8.3 0 4.55 0 4.55-35 8.3-35 8.3-19.8 24.9-19.8 24.9-35 28.65-35Z" opacity="1" transform="matrix(1,0,0,1,0,0)" fill="#ffffff" class="wordmark-text-0" data-fill-palette-color="primary" id="text-0"></path></svg></g></svg></g></svg></g></svg></g></svg></g></svg></g></svg></g><g><path d="M0 123.6c0-68.262 55.338-123.6 123.6-123.6 30.402 0 58.24 10.976 79.768 29.183l-11.147 0c-19.26-14.022-42.974-22.294-68.621-22.295-25.647 0-49.361 8.272-68.621 22.295h-2.383v1.781c-27.792 21.334-45.708 54.893-45.708 92.636 0 37.743 17.916 71.302 45.708 92.636v1.781l2.383 0c19.26 14.022 42.974 22.294 68.621 22.295 25.647 0 49.361-8.272 68.621-22.295l11.147 0c-21.528 18.206-49.366 29.183-79.768 29.183-68.262 0-123.6-55.338-123.6-123.6z" fill="#ffffff" stroke="transparent" data-fill-palette-color="tertiary"></path></g></svg></g><defs></defs></svg><rect width="395.52" height="247.2" fill="none" stroke="none" visibility="hidden"></rect></g></svg></g></svg>